name D:\school\WTK\thesis\model\3dpredictsim\Results\MidTarsalJoint\Fal_s1_bCst_PF_Natali2010_ls150_MT_k300_MTP_T5_spx10_ig23.mot
datacolumns 128
datarows 4
range 1.09237403 1.12514525
endheader
time	pelvis_tilt	pelvis_list	pelvis_rotation	pelvis_tx	pelvis_ty	pelvis_tz	hip_flexion_l	hip_adduction_l	hip_rotation_l	hip_flexion_r	hip_adduction_r	hip_rotation_r	knee_angle_l	knee_angle_r	ankle_angle_l	ankle_angle_r	subtalar_angle_l	subtalar_angle_r	mtj_angle_l	mtj_angle_r	mtp_angle_l	mtp_angle_r	lumbar_extension	lumbar_bending	lumbar_rotation	arm_flex_l	arm_add_l	arm_rot_l	arm_flex_r	arm_add_r	arm_rot_r	elbow_flex_l	elbow_flex_r	pro_sup_l	pro_sup_r	glut_med1_l/activation	glut_med2_l/activation	glut_med3_l/activation	glut_min1_l/activation	glut_min2_l/activation	glut_min3_l/activation	semimem_l/activation	semiten_l/activation	bifemlh_l/activation	bifemsh_l/activation	sar_l/activation	add_long_l/activation	add_brev_l/activation	add_mag1_l/activation	add_mag2_l/activation	add_mag3_l/activation	tfl_l/activation	pect_l/activation	grac_l/activation	glut_max1_l/activation	glut_max2_l/activation	glut_max3_l/activation	iliacus_l/activation	psoas_l/activation	quad_fem_l/activation	gem_l/activation	peri_l/activation	rect_fem_l/activation	vas_med_l/activation	vas_int_l/activation	vas_lat_l/activation	med_gas_l/activation	lat_gas_l/activation	soleus_l/activation	tib_post_l/activation	flex_dig_l/activation	flex_hal_l/activation	tib_ant_l/activation	per_brev_l/activation	per_long_l/activation	per_tert_l/activation	ext_dig_l/activation	ext_hal_l/activation	ercspn_l/activation	intobl_l/activation	extobl_l/activation	glut_med1_r/activation	glut_med2_r/activation	glut_med3_r/activation	glut_min1_r/activation	glut_min2_r/activation	glut_min3_r/activation	semimem_r/activation	semiten_r/activation	bifemlh_r/activation	bifemsh_r/activation	sar_r/activation	add_long_r/activation	add_brev_r/activation	add_mag1_r/activation	add_mag2_r/activation	add_mag3_r/activation	tfl_r/activation	pect_r/activation	grac_r/activation	glut_max1_r/activation	glut_max2_r/activation	glut_max3_r/activation	iliacus_r/activation	psoas_r/activation	quad_fem_r/activation	gem_r/activation	peri_r/activation	rect_fem_r/activation	vas_med_r/activation	vas_int_r/activation	vas_lat_r/activation	med_gas_r/activation	lat_gas_r/activation	soleus_r/activation	tib_post_r/activation	flex_dig_r/activation	flex_hal_r/activation	tib_ant_r/activation	per_brev_r/activation	per_long_r/activation	per_tert_r/activation	ext_dig_r/activation	ext_hal_r/activation	ercspn_r/activation	intobl_r/activation	extobl_r/activation	
          1.09237403	         -2.92996669	         -1.06263865	          3.83256999	          1.36546754	          0.93334104	         -0.00197531	        -15.64399633	          0.40107438	          8.50843118	         28.04605776	          2.83155813	         -0.02060350	         -8.47058884	        -10.71980703	          0.14721740	          5.65908696	         10.08472324	         -5.12903383	          5.47570023	         -0.14366922	         10.08121199	          0.72009050	         -1.57920909	         -0.38856762	         -1.89543522	          5.00957568	        -13.45048427	         14.90818500	         -4.87565831	        -13.45309095	          8.11451026	         28.29746596	         16.74696388	         86.51662706	         86.51662706	          0.34105769	          0.12919738	          0.08258351	          0.31904269	          0.23760268	          0.13488931	          0.05000290	          0.05000057	          0.05000042	          0.06023863	          0.11538914	          0.05000011	          0.05000017	          0.05000036	          0.05000123	          0.05000123	          0.33948803	          0.05000053	          0.05000056	          0.05910514	          0.05683302	          0.05000337	          0.36858707	          0.62554477	          0.05000036	          0.05000245	          0.07076792	          0.22966349	          0.05001419	          0.05001219	          0.05000330	          0.31919258	          0.39692177	          0.35922886	          0.26522994	          0.21829154	          0.29092163	          0.05000013	          0.05049955	          0.13957874	          0.05000047	          0.05000017	          0.05000064	          0.05000002	          0.05000006	          0.05000009	          0.05910283	          0.05000171	          0.05910323	          0.05000028	          0.05000044	          0.05000531	          0.13755999	          0.05910384	          0.15017181	          0.05910284	          0.05000086	          0.08928098	          0.15885292	          0.16635879	          0.13595878	          0.11224257	          0.05910390	          0.05000472	          0.11122901	          0.05910509	          0.05910574	          0.09811761	          0.05000017	          0.05000025	          0.15987899	          0.05000157	          0.05000051	          0.05000015	          0.05000067	          0.05000073	          0.05000056	          0.05910202	          0.05909840	          0.05103569	          0.06199978	          0.05726391	          0.05839153	          0.42619267	          0.25973985	          0.19586813	          0.07999167	          0.44751870	          0.06986536	          0.05630429	          0.14199419	          0.11924303	
          1.10329777	         -2.92941474	         -1.13555026	          4.08383162	          1.38156647	          0.93291888	         -0.00176306	        -15.64954904	          0.13249091	          8.39890734	         27.59417341	          3.16025914	          0.15205846	        -10.02182407	        -10.92896869	         -0.32961566	          5.02393801	         11.19488155	         -5.46807927	          4.52494732	         -0.16099664	         12.12848841	          0.71867227	         -1.41345002	         -0.18743916	         -1.95653783	          4.80752001	        -13.45595234	         15.27242860	         -5.64488477	        -13.44978683	          7.92499345	         29.31710943	         16.39042410	         86.51662706	         86.51662706	          0.28852820	          0.10929833	          0.06986400	          0.26990369	          0.20100705	          0.11411366	          0.05000245	          0.05000043	          0.05000042	          0.05096084	          0.09761737	          0.05214271	          0.05000312	          0.05000233	          0.05000389	          0.05000151	          0.28720019	          0.06115245	          0.05000742	          0.05000746	          0.05000274	          0.05000211	          0.31181707	          0.54663200	          0.05000828	          0.06828206	          0.05986905	          0.19429069	          0.05000148	          0.05000343	          0.12007950	          0.27003026	          0.33578758	          0.30390046	          0.22437938	          0.18467059	          0.24611421	          0.05000002	          0.05918884	          0.14680194	          0.05000021	          0.05000005	          0.05000020	          0.05000007	          0.06986361	          0.05966608	          0.05000029	          0.05000138	          0.05000032	          0.05910384	          0.05910297	          0.05000099	          0.11637304	          0.05000073	          0.12704269	          0.05000031	          0.05000214	          0.09815064	          0.19169679	          0.19758969	          0.15175857	          0.11979712	          0.05000097	          0.08257302	          0.09409810	          0.05000194	          0.05000234	          0.11497317	          0.07327764	          0.06617652	          0.35451414	          0.12604228	          0.06929911	          0.06765248	          0.11482981	          0.14211985	          0.08637059	          0.05000013	          0.05000018	          0.05000002	          0.06986355	          0.06986125	          0.06986353	          0.44576583	          0.23119370	          0.17403668	          0.10551413	          0.47169382	          0.05910480	          0.05000006	          0.12012415	          0.10087712	
          1.11422151	         -2.92482820	         -1.21600166	          4.30731871	          1.39795182	          0.93249315	         -0.00156060	        -15.59650388	         -0.13773716	          8.28827319	         27.08529878	          3.44561019	          0.38121065	        -11.66254240	        -11.57914828	         -0.91203222	          4.22344542	         12.28367885	         -5.77598434	          3.40743915	         -0.28932572	         14.36358730	          0.71620459	         -1.22999276	          0.03475357	         -2.00948853	          4.53275460	        -13.46331572	         15.59022792	         -6.43410131	        -13.45447784	          7.75839229	         30.32638987	         16.06781664	         86.51662706	         86.51662706	          0.25251885	          0.09246414	          0.05910352	          0.22833313	          0.17004788	          0.09653784	          0.05000807	          0.05002036	          0.05642594	          0.05000054	          0.08258268	          0.07139065	          0.05910471	          0.05910442	          0.05910356	          0.05910364	          0.24296575	          0.06989467	          0.05910325	          0.05001070	          0.05001178	          0.05910086	          0.26379083	          0.52086343	          0.05910300	          0.05776783	          0.05064809	          0.16436591	          0.10986200	          0.07174625	          0.10158571	          0.22843996	          0.28406929	          0.25709343	          0.18982032	          0.15622763	          0.20820762	          0.05007380	          0.05007301	          0.17228922	          0.05000058	          0.08061617	          0.05000116	          0.05060643	          0.05910318	          0.06986367	          0.05000110	          0.05000033	          0.07778186	          0.05000075	          0.05000040	          0.05000092	          0.11479717	          0.09383621	          0.12096349	          0.08258294	          0.06986102	          0.08303354	          0.16217171	          0.16715718	          0.12838528	          0.15368949	          0.05000118	          0.06985831	          0.07960811	          0.05000148	          0.10784078	          0.09726525	          0.06199800	          0.05910364	          0.29991164	          0.10662928	          0.05862581	          0.05723261	          0.09714369	          0.12023050	          0.07306778	          0.06629033	          0.06986349	          0.06621532	          0.05910322	          0.05910169	          0.05910351	          0.37710868	          0.19558561	          0.18021850	          0.08926279	          0.50671969	          0.05000147	          0.05000001	          0.10162274	          0.08533995	
          1.12514525	         -2.91704545	         -1.30610254	          4.49917323	          1.41449865	          0.93203568	         -0.00136171	        -15.46429270	         -0.40298913	          8.17310670	         26.51679795	          3.67901346	          0.61417202	        -13.41890470	        -12.26950058	         -1.59811303	          3.24815043	         13.32054156	         -6.07897441	          2.15498212	         -0.27899042	         16.70319939	          0.73988939	         -1.03992865	          0.27717715	         -2.05197647	          4.20245882	        -13.47387496	         15.86045792	         -7.21664561	        -13.47041665	          7.64111070	         31.32641720	         15.76448546	         86.51662706	         86.51662706	          0.26809175	          0.07822278	          0.05000040	          0.29147199	          0.14385713	          0.08166908	          0.05000206	          0.05000021	          0.05000015	          0.05000053	          0.06986440	          0.06039522	          0.05000151	          0.05000139	          0.05000151	          0.05000099	          0.21893794	          0.05913027	          0.05000083	          0.05000204	          0.05000105	          0.05000057	          0.22316289	          0.51010625	          0.05000014	          0.05000052	          0.05000019	          0.13905033	          0.09294295	          0.07168268	          0.08594138	          0.19325543	          0.24031670	          0.21749567	          0.16058408	          0.13216548	          0.17613942	          0.10807998	          0.15274942	          0.14575371	          0.10113251	          0.15560886	          0.05000399	          0.07693189	          0.05000006	          0.05910322	          0.26834204	          0.28684551	          0.32516109	          0.31418519	          0.20587994	          0.28183042	          0.09711605	          0.07938374	          0.10233267	          0.06986381	          0.05910130	          0.07024474	          0.13719411	          0.14141233	          0.13080993	          0.17095417	          0.05000122	          0.05910109	          0.09060565	          0.20371895	          0.18527351	          0.16595853	          0.05244919	          0.05000083	          0.25371910	          0.09020649	          0.12421827	          0.05000029	          0.08218238	          0.15572257	          0.06181426	          0.05608025	          0.05910308	          0.05601678	          0.05000012	          0.05000033	          0.05000055	          0.57921428	          0.36324487	          0.19728519	          0.47302878	          0.61679242	          0.33314912	          0.07335241	          0.08597090	          0.07219582	
